# xmcd
#
# Track frame offsets:
#	150
#	13495
#	28942
#	44632
#	64138
#	77240
#	91942
#	108662
#	126668
#	144178
#	160142
#
# Disc length: 2311 seconds
#
# Revision: 1
# Processed by: cddbd v1.5.2PL0 Copyright (c) Steve Scherf et al.
# Submitted via: audiograbber 1.83.01
#
DISCID=9f09050b
DTITLE=Danielle Peck - Can't Behave
DYEAR=2009
DGENRE=Country
TTITLE0=Bad For Me
TTITLE1=Brick By Brick
TTITLE2=Can't Behave
TTITLE3=Do It For Me
TTITLE4=Get You Back
TTITLE5=Lay Back Down
TTITLE6=She Just Likes To Cry
TTITLE7=That's What Angels Do
TTITLE8=This Is Not Goodbye
TTITLE9=You Like Me Better
TTITLE10=Somebody for You
EXTD=
EXTT0=
EXTT1=
EXTT2=
EXTT3=
EXTT4=
EXTT5=
EXTT6=
EXTT7=
EXTT8=
EXTT9=
EXTT10=
PLAYORDER=
